<svg width="414" height="311" viewBox="0 0 414 311" fill="none" xmlns="http://www.w3.org/2000/svg">
<g filter="url(#filter0_d_7_506)">
<g filter="url(#filter1_f_7_506)">
<path d="M142.996 227.122C145.287 227.151 168.505 263.402 168.505 277.491C168.505 284.256 165.818 290.745 161.034 295.529C156.25 300.313 149.762 303 142.996 303C136.231 303 129.743 300.313 124.959 295.529C120.175 290.745 117.487 284.256 117.487 277.491C117.487 263.402 140.707 227.097 142.996 227.122Z" fill="#42A0F0"/>
<path d="M123.546 287.027C126.095 287.806 129.334 284.6 130.782 279.866C132.229 275.133 131.336 270.663 128.787 269.884C126.238 269.105 122.999 272.311 121.551 277.045C120.104 281.778 120.997 286.248 123.546 287.027Z" fill="white"/>
<path d="M283.298 227.122C285.589 227.151 308.807 263.402 308.807 277.491C308.807 284.256 306.12 290.745 301.336 295.529C296.552 300.313 290.063 303 283.298 303C276.533 303 270.044 300.313 265.26 295.529C260.477 290.745 257.789 284.256 257.789 277.491C257.789 263.402 281.009 227.097 283.298 227.122Z" fill="#42A0F0"/>
<path d="M263.848 287.027C266.397 287.806 269.636 284.6 271.083 279.866C272.531 275.133 271.638 270.663 269.089 269.884C266.54 269.105 263.3 272.311 261.853 277.045C260.406 281.778 261.299 286.248 263.848 287.027Z" fill="white"/>
<path d="M207.853 179.295C210.144 179.324 233.362 215.575 233.362 229.664C233.362 236.429 230.674 242.918 225.89 247.702C221.106 252.485 214.618 255.173 207.853 255.173C201.087 255.173 194.599 252.485 189.815 247.702C185.031 242.918 182.344 236.429 182.344 229.664C182.344 215.575 205.564 179.27 207.853 179.295Z" fill="#42A0F0"/>
<path d="M188.402 239.2C190.951 239.979 194.191 236.773 195.638 232.039C197.085 227.305 196.192 222.836 193.643 222.057C191.095 221.278 187.855 224.484 186.408 229.217C184.961 233.951 185.854 238.42 188.402 239.2Z" fill="white"/>
</g>
<g filter="url(#filter2_f_7_506)">
<path d="M92.4871 186.295C77.2648 186.315 62.3896 181.748 49.8011 173.19C38.3708 165.443 29.2385 154.759 23.3639 142.263C17.4893 129.767 15.0894 115.919 16.4163 102.174C17.7433 88.4297 22.7481 75.2965 30.9048 64.1548C39.0615 53.0131 50.0689 44.2743 62.7701 38.8568C72.1664 34.8588 82.2757 32.8075 92.4871 32.8268C95.468 32.8269 98.4463 32.9998 101.407 33.3448C99.6809 37.1194 98.3602 41.0665 97.4671 45.1198C96.5492 49.3033 96.0869 53.5738 96.0881 57.8568C96.069 69.6099 99.578 81.0983 106.161 90.8348C110.405 97.1147 115.813 102.523 122.093 106.767C125.249 108.899 128.605 110.72 132.112 112.205C139.375 115.279 147.184 116.855 155.071 116.84C159.634 116.841 164.182 116.316 168.624 115.275C167.576 129.709 162.46 143.551 153.869 155.197C151.09 158.965 147.974 162.472 144.559 165.676C130.467 178.938 111.839 186.314 92.4871 186.295Z" fill="#713FFD"/>
</g>
<g filter="url(#filter3_f_7_506)">
<path d="M79.0538 99.0074C96.1916 83.5764 101.526 61.5624 90.9695 49.8377C80.4126 38.1131 57.9615 41.1176 40.8237 56.5486C23.6859 71.9795 18.3511 93.9935 28.908 105.718C39.465 117.443 61.916 114.438 79.0538 99.0074Z" fill="#A586FC"/>
</g>
<g filter="url(#filter4_f_7_506)">
<path d="M54.9863 13L57.5513 19.2L64.4863 21.5L57.5513 23.8L54.9863 30L52.4213 23.8L45.4863 21.5L52.4213 19.2L54.9863 13Z" fill="url(#paint0_linear_7_506)"/>
<path d="M169.486 160L171.646 165.11L177.486 167L171.646 168.89L169.486 174L167.326 168.89L161.486 167L167.326 165.11L169.486 160Z" fill="url(#paint1_linear_7_506)"/>
<path d="M135.488 32.6052L139.03 37.2472L145.344 37.6252L140.066 41.1112L139.322 46.902L135.781 42.2497L129.467 41.8716L134.745 38.3856L135.488 32.6052Z" fill="url(#paint2_linear_7_506)"/>
<path d="M9.1838 148.601L13.0048 152.196L18.9482 151.602L14.3921 155.464L14.3231 160.707L10.513 157.109L4.56965 157.704L9.1265 153.843L9.1838 148.601Z" fill="url(#paint3_linear_7_506)"/>
<path d="M132.152 84.0383L127.952 84.8895L125.468 89.2421L125.142 84.2408L121.741 81.6349L125.943 80.7863L128.427 76.4335L128.75 81.4344L132.152 84.0383Z" fill="url(#paint4_linear_7_506)"/>
</g>
<g filter="url(#filter5_df_7_506)">
<g filter="url(#filter6_d_7_506)">
<path d="M257.781 233.765C255.848 233.92 253.895 233.999 251.924 234H114.4C104.934 234.035 95.5536 232.201 86.7978 228.603C78.0419 225.005 70.0826 219.714 63.3765 213.032C56.6703 206.351 51.3492 198.412 47.7185 189.669C44.0877 180.927 42.2187 171.554 42.2188 162.087C42.2187 152.621 44.0877 143.248 47.7185 134.506C51.3492 125.763 56.6703 117.824 63.3765 111.143C70.0826 104.461 78.0419 99.17 86.7978 95.5718C95.5536 91.9737 104.934 90.1397 114.4 90.175H165.676C182.3 53.6 220.587 28 265.16 28C324.987 28 373.487 74.115 373.487 131C373.487 187.885 324.987 234 265.16 234C262.68 234 260.22 233.922 257.781 233.765Z" fill="url(#paint5_linear_7_506)"/>
<path d="M265.16 233C272.446 233 279.727 232.302 286.801 230.926C293.694 229.585 300.474 227.584 306.953 224.978C313.313 222.42 319.448 219.254 325.186 215.568C330.87 211.917 336.214 207.725 341.07 203.107C345.926 198.49 350.333 193.411 354.172 188.009C358.046 182.557 361.373 176.728 364.061 170.686C366.798 164.532 368.9 158.093 370.309 151.547C371.755 144.831 372.488 137.917 372.488 131C372.488 124.082 371.755 117.169 370.309 110.452C368.9 103.906 366.798 97.4673 364.061 91.3142C361.373 85.2716 358.046 79.4433 354.172 73.991C350.333 68.5893 345.926 63.5095 341.07 58.8928C336.214 54.2752 330.87 50.0829 325.186 46.4323C319.448 42.7461 313.313 39.5801 306.953 37.0221C300.474 34.4165 293.694 32.4154 286.801 31.0742C279.727 29.6979 272.446 29 265.16 29C243.789 29 223.15 34.9523 205.474 46.2135C196.953 51.6418 189.297 58.1939 182.717 65.6878C176.095 73.2291 170.668 81.6069 166.586 90.5885L166.32 91.1747H165.676H114.4C104.826 91.1747 95.5398 93.0495 86.7979 96.747C82.5963 98.5242 78.5437 100.724 74.7528 103.285C70.9976 105.822 67.4664 108.735 64.2572 111.945C61.048 115.154 58.1345 118.685 55.5975 122.44C53.0364 126.231 50.8368 130.284 49.0596 134.485C45.3621 143.227 43.4873 152.514 43.4873 162.087C43.4873 171.661 45.3621 180.948 49.0596 189.689C50.8368 193.891 53.0364 197.944 55.5975 201.735C58.1345 205.49 61.048 209.021 64.2572 212.23C67.4664 215.439 70.9976 218.353 74.7528 220.89C78.5437 223.451 82.5963 225.651 86.7979 227.428C95.5398 231.125 104.826 233 114.4 233H251.924C253.847 233 255.791 232.922 257.701 232.768L257.773 232.762L257.846 232.767C260.265 232.922 262.726 233 265.16 233ZM265.16 234C262.68 234 260.22 233.921 257.782 233.765C255.851 233.92 253.895 234 251.924 234H114.4C74.6839 234 42.4873 201.803 42.4873 162.087C42.4873 122.371 74.6839 90.1747 114.4 90.1747H165.676C182.3 53.5954 220.585 28 265.16 28C324.987 28 373.488 74.1151 373.488 131C373.488 187.885 324.987 234 265.16 234Z" fill="white" fill-opacity="0.5"/>
</g>
</g>
</g>
<defs>
<filter id="filter0_d_7_506" x="0.569336" y="13" width="376.918" height="298" filterUnits="userSpaceOnUse" color-interpolation-filters="sRGB">
<feFlood flood-opacity="0" result="BackgroundImageFix"/>
<feColorMatrix in="SourceAlpha" type="matrix" values="0 0 0 0 0 0 0 0 0 0 0 0 0 0 0 0 0 0 127 0" result="hardAlpha"/>
<feOffset dy="4"/>
<feGaussianBlur stdDeviation="2"/>
<feComposite in2="hardAlpha" operator="out"/>
<feColorMatrix type="matrix" values="0 0 0 0 0 0 0 0 0 0 0 0 0 0 0 0 0 0 0.25 0"/>
<feBlend mode="normal" in2="BackgroundImageFix" result="effect1_dropShadow_7_506"/>
<feBlend mode="normal" in="SourceGraphic" in2="effect1_dropShadow_7_506" result="shape"/>
</filter>
<filter id="filter1_f_7_506" x="113.487" y="175.295" width="199.319" height="131.705" filterUnits="userSpaceOnUse" color-interpolation-filters="sRGB">
<feFlood flood-opacity="0" result="BackgroundImageFix"/>
<feBlend mode="normal" in="SourceGraphic" in2="BackgroundImageFix" result="shape"/>
<feGaussianBlur stdDeviation="2" result="effect1_foregroundBlur_7_506"/>
</filter>
<filter id="filter2_f_7_506" x="12.0605" y="28.8267" width="160.563" height="161.468" filterUnits="userSpaceOnUse" color-interpolation-filters="sRGB">
<feFlood flood-opacity="0" result="BackgroundImageFix"/>
<feBlend mode="normal" in="SourceGraphic" in2="BackgroundImageFix" result="shape"/>
<feGaussianBlur stdDeviation="2" result="effect1_foregroundBlur_7_506"/>
</filter>
<filter id="filter3_f_7_506" x="3.48828" y="22.6855" width="112.901" height="110.185" filterUnits="userSpaceOnUse" color-interpolation-filters="sRGB">
<feFlood flood-opacity="0" result="BackgroundImageFix"/>
<feBlend mode="normal" in="SourceGraphic" in2="BackgroundImageFix" result="shape"/>
<feGaussianBlur stdDeviation="10" result="effect1_foregroundBlur_7_506"/>
</filter>
<filter id="filter4_f_7_506" x="2.56934" y="11" width="176.917" height="165" filterUnits="userSpaceOnUse" color-interpolation-filters="sRGB">
<feFlood flood-opacity="0" result="BackgroundImageFix"/>
<feBlend mode="normal" in="SourceGraphic" in2="BackgroundImageFix" result="shape"/>
<feGaussianBlur stdDeviation="1" result="effect1_foregroundBlur_7_506"/>
</filter>
<filter id="filter5_df_7_506" x="22.2188" y="0" width="391.269" height="266" filterUnits="userSpaceOnUse" color-interpolation-filters="sRGB">
<feFlood flood-opacity="0" result="BackgroundImageFix"/>
<feColorMatrix in="SourceAlpha" type="matrix" values="0 0 0 0 0 0 0 0 0 0 0 0 0 0 0 0 0 0 127 0" result="hardAlpha"/>
<feOffset dx="10" dy="2"/>
<feGaussianBlur stdDeviation="15"/>
<feColorMatrix type="matrix" values="0 0 0 0 0.258824 0 0 0 0 0.627451 0 0 0 0 0.941176 0 0 0 0.596 0"/>
<feBlend mode="normal" in2="BackgroundImageFix" result="effect1_dropShadow_7_506"/>
<feBlend mode="normal" in="SourceGraphic" in2="effect1_dropShadow_7_506" result="shape"/>
<feGaussianBlur stdDeviation="2" result="effect2_foregroundBlur_7_506"/>
</filter>
<filter id="filter6_d_7_506" x="22.2188" y="0" width="391.269" height="266" filterUnits="userSpaceOnUse" color-interpolation-filters="sRGB">
<feFlood flood-opacity="0" result="BackgroundImageFix"/>
<feColorMatrix in="SourceAlpha" type="matrix" values="0 0 0 0 0 0 0 0 0 0 0 0 0 0 0 0 0 0 127 0" result="hardAlpha"/>
<feOffset dx="10" dy="2"/>
<feGaussianBlur stdDeviation="15"/>
<feColorMatrix type="matrix" values="0 0 0 0 0.501961 0 0 0 0 0.501961 0 0 0 0 0.501961 0 0 0 0.302 0"/>
<feBlend mode="normal" in2="BackgroundImageFix" result="effect1_dropShadow_7_506"/>
<feBlend mode="normal" in="SourceGraphic" in2="effect1_dropShadow_7_506" result="shape"/>
</filter>
<linearGradient id="paint0_linear_7_506" x1="54.9863" y1="13" x2="54.9863" y2="30" gradientUnits="userSpaceOnUse">
<stop stop-color="#6B38FC"/>
<stop offset="1" stop-color="#9F7EFD"/>
</linearGradient>
<linearGradient id="paint1_linear_7_506" x1="169.486" y1="160" x2="169.486" y2="174" gradientUnits="userSpaceOnUse">
<stop stop-color="#6B38FC"/>
<stop offset="1" stop-color="#9F7EFD"/>
</linearGradient>
<linearGradient id="paint2_linear_7_506" x1="135.49" y1="32.6048" x2="139.323" y2="46.9016" gradientUnits="userSpaceOnUse">
<stop stop-color="#6B38FC"/>
<stop offset="1" stop-color="#9F7EFD"/>
</linearGradient>
<linearGradient id="paint3_linear_7_506" x1="9.18887" y1="148.599" x2="14.3282" y2="160.705" gradientUnits="userSpaceOnUse">
<stop stop-color="#6B38FC"/>
<stop offset="1" stop-color="#9F7EFD"/>
</linearGradient>
<linearGradient id="paint4_linear_7_506" x1="132.151" y1="84.0393" x2="121.741" y2="81.6359" gradientUnits="userSpaceOnUse">
<stop stop-color="#6B38FC"/>
<stop offset="1" stop-color="#9F7EFD"/>
</linearGradient>
<linearGradient id="paint5_linear_7_506" x1="176.382" y1="53.9561" x2="242.424" y2="245.168" gradientUnits="userSpaceOnUse">
<stop stop-color="white" stop-opacity="0.596"/>
<stop offset="1" stop-color="#F7F7F7" stop-opacity="0.204"/>
</linearGradient>
</defs>
</svg>
